<svg xmlns="http://www.w3.org/2000/svg" xmlns:xlink="http://www.w3.org/1999/xlink" width="1000" zoomAndPan="magnify" viewBox="0 0 750 749.999995" height="1000" preserveAspectRatio="xMidYMid meet" version="1.0"><defs><g/><clipPath id="85c3d0a970"><path d="M 0 748.097656 L 2.253906 748.097656 L 2.253906 750 L 0 750 Z M 0 748.097656 " clip-rule="nonzero"/></clipPath><clipPath id="a8dfc50509"><path d="M 1.050781 748.125 C 2.023438 750 0.523438 750.375 0.300781 750.074219 C 0.0742188 749.851562 0.300781 748.5 0.601562 748.273438 C 0.898438 748.050781 1.726562 748.273438 1.949219 748.574219 C 2.175781 748.800781 2.324219 749.25 2.175781 749.550781 C 2.023438 750 0.976562 750.601562 0.449219 750.601562 C 0 750.601562 -0.675781 750.226562 -0.824219 749.851562 C -1.050781 749.476562 -0.375 748.125 -0.375 748.125 " clip-rule="nonzero"/></clipPath><clipPath id="9b806bb641"><path d="M 0 0.0976562 L 2.253906 0.0976562 L 2.253906 2 L 0 2 Z M 0 0.0976562 " clip-rule="nonzero"/></clipPath><clipPath id="f086d7a687"><path d="M 1.050781 0.125 C 2.023438 2 0.523438 2.375 0.300781 2.074219 C 0.0742188 1.851562 0.300781 0.5 0.601562 0.273438 C 0.898438 0.0507812 1.726562 0.273438 1.949219 0.574219 C 2.175781 0.800781 2.324219 1.25 2.175781 1.550781 C 2.023438 2 0.976562 2.601562 0.449219 2.601562 C 0 2.601562 -0.675781 2.226562 -0.824219 1.851562 C -1.050781 1.476562 -0.375 0.125 -0.375 0.125 " clip-rule="nonzero"/></clipPath><clipPath id="0c6535ba06"><rect x="0" width="3" y="0" height="2"/></clipPath></defs><g clip-path="url(#85c3d0a970)"><g clip-path="url(#a8dfc50509)"><g transform="matrix(1, 0, 0, 1, 0, 748)"><g clip-path="url(#0c6535ba06)"><g clip-path="url(#9b806bb641)"><g clip-path="url(#f086d7a687)"><rect x="-165" width="1080" fill="#000000" height="1079.999992" y="-912.999999" fill-opacity="1"/></g></g></g></g></g></g><g fill="#ffffff" fill-opacity="1"><g transform="translate(208.552728, 601.78387)"><g><path d="M 301.625 0 L 28.421875 0 L 28.421875 -40.65625 L 137.875 -150.671875 C 171.226562 -184.398438 193.210938 -208.46875 203.828125 -222.875 C 214.441406 -237.28125 222.398438 -251.304688 227.703125 -264.953125 C 233.015625 -278.597656 235.671875 -293.285156 235.671875 -309.015625 C 235.671875 -331.179688 228.941406 -348.753906 215.484375 -361.734375 C 202.023438 -374.722656 183.359375 -381.21875 159.484375 -381.21875 C 142.234375 -381.21875 125.882812 -378.375 110.4375 -372.6875 C 95 -367 77.800781 -356.671875 58.84375 -341.703125 L 33.828125 -373.828125 C 72.109375 -405.660156 113.800781 -421.578125 158.90625 -421.578125 C 197.945312 -421.578125 228.554688 -411.582031 250.734375 -391.59375 C 272.910156 -371.601562 284 -344.738281 284 -311 C 284 -284.65625 276.601562 -258.59375 261.8125 -232.8125 C 247.03125 -207.039062 219.363281 -174.445312 178.8125 -135.03125 L 87.84375 -46.046875 L 87.84375 -43.78125 L 301.625 -43.78125 Z M 301.625 0 "/></g></g></g></svg>