<svg xmlns="http://www.w3.org/2000/svg" xmlns:xlink="http://www.w3.org/1999/xlink" width="1000" zoomAndPan="magnify" viewBox="0 0 750 749.999995" height="1000" preserveAspectRatio="xMidYMid meet" version="1.0"><defs><g/><clipPath id="eef8d1af11"><path d="M 0 748.097656 L 2.253906 748.097656 L 2.253906 750 L 0 750 Z M 0 748.097656 " clip-rule="nonzero"/></clipPath><clipPath id="016efdb599"><path d="M 1.050781 748.125 C 2.023438 750 0.523438 750.375 0.300781 750.074219 C 0.0742188 749.851562 0.300781 748.5 0.601562 748.273438 C 0.898438 748.050781 1.726562 748.273438 1.949219 748.574219 C 2.175781 748.800781 2.324219 749.25 2.175781 749.550781 C 2.023438 750 0.976562 750.601562 0.449219 750.601562 C 0 750.601562 -0.675781 750.226562 -0.824219 749.851562 C -1.050781 749.476562 -0.375 748.125 -0.375 748.125 " clip-rule="nonzero"/></clipPath><clipPath id="f75ce63d9c"><path d="M 0 0.0976562 L 2.253906 0.0976562 L 2.253906 2 L 0 2 Z M 0 0.0976562 " clip-rule="nonzero"/></clipPath><clipPath id="c904511011"><path d="M 1.050781 0.125 C 2.023438 2 0.523438 2.375 0.300781 2.074219 C 0.0742188 1.851562 0.300781 0.5 0.601562 0.273438 C 0.898438 0.0507812 1.726562 0.273438 1.949219 0.574219 C 2.175781 0.800781 2.324219 1.25 2.175781 1.550781 C 2.023438 2 0.976562 2.601562 0.449219 2.601562 C 0 2.601562 -0.675781 2.226562 -0.824219 1.851562 C -1.050781 1.476562 -0.375 0.125 -0.375 0.125 " clip-rule="nonzero"/></clipPath><clipPath id="ad0e9314d0"><rect x="0" width="3" y="0" height="2"/></clipPath></defs><g clip-path="url(#eef8d1af11)"><g clip-path="url(#016efdb599)"><g transform="matrix(1, 0, 0, 1, 0, 748)"><g clip-path="url(#ad0e9314d0)"><g clip-path="url(#f75ce63d9c)"><g clip-path="url(#c904511011)"><rect x="-165" width="1080" fill="#000000" height="1079.999992" y="-912.999999" fill-opacity="1"/></g></g></g></g></g></g><g fill="#ffffff" fill-opacity="1"><g transform="translate(208.552728, 601.78387)"><g><path d="M 285.984375 -317.828125 C 285.984375 -291.296875 278.546875 -269.59375 263.671875 -252.71875 C 248.796875 -235.851562 227.710938 -224.578125 200.421875 -218.890625 L 200.421875 -216.625 C 233.773438 -212.445312 258.503906 -201.832031 274.609375 -184.78125 C 290.722656 -167.726562 298.78125 -145.363281 298.78125 -117.6875 C 298.78125 -78.082031 285.039062 -47.617188 257.5625 -26.296875 C 230.082031 -4.972656 191.039062 5.6875 140.4375 5.6875 C 118.445312 5.6875 98.304688 4.023438 80.015625 0.703125 C 61.734375 -2.609375 43.96875 -8.429688 26.71875 -16.765625 L 26.71875 -61.6875 C 44.726562 -52.78125 63.914062 -46.003906 84.28125 -41.359375 C 104.65625 -36.710938 123.941406 -34.390625 142.140625 -34.390625 C 213.960938 -34.390625 249.875 -62.535156 249.875 -118.828125 C 249.875 -169.242188 210.265625 -194.453125 131.046875 -194.453125 L 90.109375 -194.453125 L 90.109375 -235.09375 L 131.625 -235.09375 C 164.03125 -235.09375 189.707031 -242.25 208.65625 -256.5625 C 227.613281 -270.875 237.09375 -290.726562 237.09375 -316.125 C 237.09375 -336.394531 230.125 -352.3125 216.1875 -363.875 C 202.257812 -375.4375 183.359375 -381.21875 159.484375 -381.21875 C 141.285156 -381.21875 124.128906 -378.753906 108.015625 -373.828125 C 91.910156 -368.898438 73.53125 -359.800781 52.875 -346.53125 L 29 -378.375 C 46.050781 -391.832031 65.710938 -402.394531 87.984375 -410.0625 C 110.253906 -417.738281 133.707031 -421.578125 158.34375 -421.578125 C 198.707031 -421.578125 230.070312 -412.335938 252.4375 -393.859375 C 274.800781 -375.390625 285.984375 -350.046875 285.984375 -317.828125 Z M 285.984375 -317.828125 "/></g></g></g></svg>