<svg xmlns="http://www.w3.org/2000/svg" xmlns:xlink="http://www.w3.org/1999/xlink" width="1000" zoomAndPan="magnify" viewBox="0 0 750 749.999995" height="1000" preserveAspectRatio="xMidYMid meet" version="1.0"><defs><g/><clipPath id="9a447115db"><path d="M 0 748.097656 L 2.253906 748.097656 L 2.253906 750 L 0 750 Z M 0 748.097656 " clip-rule="nonzero"/></clipPath><clipPath id="7e5fd1e5f0"><path d="M 1.050781 748.125 C 2.023438 750 0.523438 750.375 0.300781 750.074219 C 0.0742188 749.851562 0.300781 748.5 0.601562 748.273438 C 0.898438 748.050781 1.726562 748.273438 1.949219 748.574219 C 2.175781 748.800781 2.324219 749.25 2.175781 749.550781 C 2.023438 750 0.976562 750.601562 0.449219 750.601562 C 0 750.601562 -0.675781 750.226562 -0.824219 749.851562 C -1.050781 749.476562 -0.375 748.125 -0.375 748.125 " clip-rule="nonzero"/></clipPath><clipPath id="9a71792758"><path d="M 0 0.0976562 L 2.253906 0.0976562 L 2.253906 2 L 0 2 Z M 0 0.0976562 " clip-rule="nonzero"/></clipPath><clipPath id="a7f404a1f0"><path d="M 1.050781 0.125 C 2.023438 2 0.523438 2.375 0.300781 2.074219 C 0.0742188 1.851562 0.300781 0.5 0.601562 0.273438 C 0.898438 0.0507812 1.726562 0.273438 1.949219 0.574219 C 2.175781 0.800781 2.324219 1.25 2.175781 1.550781 C 2.023438 2 0.976562 2.601562 0.449219 2.601562 C 0 2.601562 -0.675781 2.226562 -0.824219 1.851562 C -1.050781 1.476562 -0.375 0.125 -0.375 0.125 " clip-rule="nonzero"/></clipPath><clipPath id="08f60cbc41"><rect x="0" width="3" y="0" height="2"/></clipPath></defs><g clip-path="url(#9a447115db)"><g clip-path="url(#7e5fd1e5f0)"><g transform="matrix(1, 0, 0, 1, 0, 748)"><g clip-path="url(#08f60cbc41)"><g clip-path="url(#9a71792758)"><g clip-path="url(#a7f404a1f0)"><rect x="-165" width="1080" fill="#000000" height="1079.999992" y="-912.999999" fill-opacity="1"/></g></g></g></g></g></g><g fill="#ffffff" fill-opacity="1"><g transform="translate(208.552728, 601.78387)"><g><path d="M 321.234375 -95.515625 L 259.546875 -95.515625 L 259.546875 0 L 214.34375 0 L 214.34375 -95.515625 L 12.21875 -95.515625 L 12.21875 -136.734375 L 209.515625 -417.890625 L 259.546875 -417.890625 L 259.546875 -138.4375 L 321.234375 -138.4375 Z M 214.34375 -138.4375 L 214.34375 -276.609375 C 214.34375 -303.703125 215.289062 -334.304688 217.1875 -368.421875 L 214.921875 -368.421875 C 205.816406 -350.234375 197.285156 -335.164062 189.328125 -323.21875 L 59.421875 -138.4375 Z M 214.34375 -138.4375 "/></g></g></g></svg>