<svg xmlns="http://www.w3.org/2000/svg" xmlns:xlink="http://www.w3.org/1999/xlink" width="1000" zoomAndPan="magnify" viewBox="0 0 750 749.999995" height="1000" preserveAspectRatio="xMidYMid meet" version="1.0"><defs><g/><clipPath id="f152b9adf7"><path d="M 0 748.097656 L 2.253906 748.097656 L 2.253906 750 L 0 750 Z M 0 748.097656 " clip-rule="nonzero"/></clipPath><clipPath id="b220944639"><path d="M 1.050781 748.125 C 2.023438 750 0.523438 750.375 0.300781 750.074219 C 0.0742188 749.851562 0.300781 748.5 0.601562 748.273438 C 0.898438 748.050781 1.726562 748.273438 1.949219 748.574219 C 2.175781 748.800781 2.324219 749.25 2.175781 749.550781 C 2.023438 750 0.976562 750.601562 0.449219 750.601562 C 0 750.601562 -0.675781 750.226562 -0.824219 749.851562 C -1.050781 749.476562 -0.375 748.125 -0.375 748.125 " clip-rule="nonzero"/></clipPath><clipPath id="c8af430f51"><path d="M 0 0.0976562 L 2.253906 0.0976562 L 2.253906 2 L 0 2 Z M 0 0.0976562 " clip-rule="nonzero"/></clipPath><clipPath id="25a1c60f2f"><path d="M 1.050781 0.125 C 2.023438 2 0.523438 2.375 0.300781 2.074219 C 0.0742188 1.851562 0.300781 0.5 0.601562 0.273438 C 0.898438 0.0507812 1.726562 0.273438 1.949219 0.574219 C 2.175781 0.800781 2.324219 1.25 2.175781 1.550781 C 2.023438 2 0.976562 2.601562 0.449219 2.601562 C 0 2.601562 -0.675781 2.226562 -0.824219 1.851562 C -1.050781 1.476562 -0.375 0.125 -0.375 0.125 " clip-rule="nonzero"/></clipPath><clipPath id="d74cc558d1"><rect x="0" width="3" y="0" height="2"/></clipPath></defs><g clip-path="url(#f152b9adf7)"><g clip-path="url(#b220944639)"><g transform="matrix(1, 0, 0, 1, 0, 748)"><g clip-path="url(#d74cc558d1)"><g clip-path="url(#c8af430f51)"><g clip-path="url(#25a1c60f2f)"><rect x="-165" width="1080" fill="#000000" height="1079.999992" y="-912.999999" fill-opacity="1"/></g></g></g></g></g></g><g fill="#ffffff" fill-opacity="1"><g transform="translate(208.552728, 601.78387)"><g><path d="M 158.34375 -253.859375 C 202.125 -253.859375 236.566406 -243.007812 261.671875 -221.3125 C 286.785156 -199.613281 299.34375 -169.90625 299.34375 -132.1875 C 299.34375 -89.164062 285.648438 -55.429688 258.265625 -30.984375 C 230.878906 -6.535156 193.117188 5.6875 144.984375 5.6875 C 98.171875 5.6875 62.445312 -1.796875 37.8125 -16.765625 L 37.8125 -62.25 C 51.070312 -53.726562 67.554688 -47.050781 87.265625 -42.21875 C 106.984375 -37.382812 126.410156 -34.96875 145.546875 -34.96875 C 178.898438 -34.96875 204.816406 -42.832031 223.296875 -58.5625 C 241.773438 -74.289062 251.015625 -97.03125 251.015625 -126.78125 C 251.015625 -184.78125 215.476562 -213.78125 144.40625 -213.78125 C 126.40625 -213.78125 102.335938 -211.03125 72.203125 -205.53125 L 47.765625 -221.171875 L 63.390625 -415.609375 L 270.0625 -415.609375 L 270.0625 -372.125 L 103.765625 -372.125 L 93.25 -247.328125 C 115.039062 -251.679688 136.738281 -253.859375 158.34375 -253.859375 Z M 158.34375 -253.859375 "/></g></g></g></svg>