<svg xmlns="http://www.w3.org/2000/svg" xmlns:xlink="http://www.w3.org/1999/xlink" width="1000" zoomAndPan="magnify" viewBox="0 0 750 749.999995" height="1000" preserveAspectRatio="xMidYMid meet" version="1.0"><defs><g/><clipPath id="7fea806801"><path d="M 0 748.097656 L 2.253906 748.097656 L 2.253906 750 L 0 750 Z M 0 748.097656 " clip-rule="nonzero"/></clipPath><clipPath id="aad8395e5b"><path d="M 1.050781 748.125 C 2.023438 750 0.523438 750.375 0.300781 750.074219 C 0.0742188 749.851562 0.300781 748.5 0.601562 748.273438 C 0.898438 748.050781 1.726562 748.273438 1.949219 748.574219 C 2.175781 748.800781 2.324219 749.25 2.175781 749.550781 C 2.023438 750 0.976562 750.601562 0.449219 750.601562 C 0 750.601562 -0.675781 750.226562 -0.824219 749.851562 C -1.050781 749.476562 -0.375 748.125 -0.375 748.125 " clip-rule="nonzero"/></clipPath><clipPath id="9ec31fa210"><path d="M 0 0.0976562 L 2.253906 0.0976562 L 2.253906 2 L 0 2 Z M 0 0.0976562 " clip-rule="nonzero"/></clipPath><clipPath id="71c05774f7"><path d="M 1.050781 0.125 C 2.023438 2 0.523438 2.375 0.300781 2.074219 C 0.0742188 1.851562 0.300781 0.5 0.601562 0.273438 C 0.898438 0.0507812 1.726562 0.273438 1.949219 0.574219 C 2.175781 0.800781 2.324219 1.25 2.175781 1.550781 C 2.023438 2 0.976562 2.601562 0.449219 2.601562 C 0 2.601562 -0.675781 2.226562 -0.824219 1.851562 C -1.050781 1.476562 -0.375 0.125 -0.375 0.125 " clip-rule="nonzero"/></clipPath><clipPath id="a8792291d7"><rect x="0" width="3" y="0" height="2"/></clipPath></defs><g clip-path="url(#7fea806801)"><g clip-path="url(#aad8395e5b)"><g transform="matrix(1, 0, 0, 1, 0, 748)"><g clip-path="url(#a8792291d7)"><g clip-path="url(#9ec31fa210)"><g clip-path="url(#71c05774f7)"><rect x="-165" width="1080" fill="#000000" height="1079.999992" y="-912.999999" fill-opacity="1"/></g></g></g></g></g></g><g fill="#ffffff" fill-opacity="1"><g transform="translate(208.552728, 601.78387)"><g><path d="M 33.265625 -177.671875 C 33.265625 -259.359375 49.132812 -320.429688 80.875 -360.890625 C 112.625 -401.347656 159.578125 -421.578125 221.734375 -421.578125 C 243.148438 -421.578125 260.019531 -419.78125 272.34375 -416.1875 L 272.34375 -375.53125 C 257.75 -380.269531 241.070312 -382.640625 222.3125 -382.640625 C 177.769531 -382.640625 143.75 -368.753906 120.25 -340.984375 C 96.75 -313.222656 83.863281 -269.585938 81.59375 -210.078125 L 85 -210.078125 C 105.84375 -242.679688 138.816406 -258.984375 183.921875 -258.984375 C 221.265625 -258.984375 250.691406 -247.703125 272.203125 -225.140625 C 293.710938 -202.585938 304.46875 -171.984375 304.46875 -133.328125 C 304.46875 -90.117188 292.664062 -56.144531 269.0625 -31.40625 C 245.46875 -6.675781 213.582031 5.6875 173.40625 5.6875 C 130.382812 5.6875 96.269531 -10.46875 71.0625 -42.78125 C 45.863281 -75.09375 33.265625 -120.054688 33.265625 -177.671875 Z M 172.84375 -34.390625 C 199.75 -34.390625 220.640625 -42.867188 235.515625 -59.828125 C 250.398438 -76.796875 257.84375 -101.296875 257.84375 -133.328125 C 257.84375 -160.804688 250.925781 -182.410156 237.09375 -198.140625 C 223.257812 -213.867188 202.597656 -221.734375 175.109375 -221.734375 C 158.054688 -221.734375 142.421875 -218.226562 128.203125 -211.21875 C 113.992188 -204.207031 102.671875 -194.539062 94.234375 -182.21875 C 85.804688 -169.90625 81.59375 -157.113281 81.59375 -143.84375 C 81.59375 -124.320312 85.378906 -106.128906 92.953125 -89.265625 C 100.535156 -72.398438 111.289062 -59.035156 125.21875 -49.171875 C 139.15625 -39.316406 155.03125 -34.390625 172.84375 -34.390625 Z M 172.84375 -34.390625 "/></g></g></g></svg>