<svg xmlns="http://www.w3.org/2000/svg" xmlns:xlink="http://www.w3.org/1999/xlink" width="1000" zoomAndPan="magnify" viewBox="0 0 750 749.999995" height="1000" preserveAspectRatio="xMidYMid meet" version="1.0"><defs><g/><clipPath id="f67b92cb13"><path d="M 0 748.097656 L 2.253906 748.097656 L 2.253906 750 L 0 750 Z M 0 748.097656 " clip-rule="nonzero"/></clipPath><clipPath id="10c4c61aad"><path d="M 1.050781 748.125 C 2.023438 750 0.523438 750.375 0.300781 750.074219 C 0.0742188 749.851562 0.300781 748.5 0.601562 748.273438 C 0.898438 748.050781 1.726562 748.273438 1.949219 748.574219 C 2.175781 748.800781 2.324219 749.25 2.175781 749.550781 C 2.023438 750 0.976562 750.601562 0.449219 750.601562 C 0 750.601562 -0.675781 750.226562 -0.824219 749.851562 C -1.050781 749.476562 -0.375 748.125 -0.375 748.125 " clip-rule="nonzero"/></clipPath><clipPath id="064a0173a8"><path d="M 0 0.0976562 L 2.253906 0.0976562 L 2.253906 2 L 0 2 Z M 0 0.0976562 " clip-rule="nonzero"/></clipPath><clipPath id="2f51aa66c8"><path d="M 1.050781 0.125 C 2.023438 2 0.523438 2.375 0.300781 2.074219 C 0.0742188 1.851562 0.300781 0.5 0.601562 0.273438 C 0.898438 0.0507812 1.726562 0.273438 1.949219 0.574219 C 2.175781 0.800781 2.324219 1.25 2.175781 1.550781 C 2.023438 2 0.976562 2.601562 0.449219 2.601562 C 0 2.601562 -0.675781 2.226562 -0.824219 1.851562 C -1.050781 1.476562 -0.375 0.125 -0.375 0.125 " clip-rule="nonzero"/></clipPath><clipPath id="fcf9bee27b"><rect x="0" width="3" y="0" height="2"/></clipPath></defs><g clip-path="url(#f67b92cb13)"><g clip-path="url(#10c4c61aad)"><g transform="matrix(1, 0, 0, 1, 0, 748)"><g clip-path="url(#fcf9bee27b)"><g clip-path="url(#064a0173a8)"><g clip-path="url(#2f51aa66c8)"><rect x="-165" width="1080" fill="#000000" height="1079.999992" y="-912.999999" fill-opacity="1"/></g></g></g></g></g></g><g fill="#ffffff" fill-opacity="1"><g transform="translate(208.552728, 601.78387)"><g><path d="M 166.015625 -421.578125 C 203.921875 -421.578125 233.957031 -412.765625 256.125 -395.140625 C 278.300781 -377.515625 289.390625 -353.164062 289.390625 -322.09375 C 289.390625 -301.625 283.039062 -282.953125 270.34375 -266.078125 C 257.644531 -249.210938 237.367188 -233.863281 209.515625 -220.03125 C 243.242188 -203.925781 267.210938 -187.007812 281.421875 -169.28125 C 295.640625 -151.5625 302.75 -131.046875 302.75 -107.734375 C 302.75 -73.242188 290.710938 -45.71875 266.640625 -25.15625 C 242.578125 -4.59375 209.601562 5.6875 167.71875 5.6875 C 123.375 5.6875 89.257812 -4.023438 65.375 -23.453125 C 41.5 -42.878906 29.5625 -70.40625 29.5625 -106.03125 C 29.5625 -153.601562 58.554688 -190.65625 116.546875 -217.1875 C 90.398438 -231.96875 71.640625 -247.929688 60.265625 -265.078125 C 48.890625 -282.234375 43.203125 -301.425781 43.203125 -322.65625 C 43.203125 -352.789062 54.335938 -376.8125 76.609375 -394.71875 C 98.878906 -412.625 128.679688 -421.578125 166.015625 -421.578125 Z M 76.1875 -104.90625 C 76.1875 -82.15625 84.097656 -64.429688 99.921875 -51.734375 C 115.742188 -39.035156 137.96875 -32.6875 166.59375 -32.6875 C 194.820312 -32.6875 216.800781 -39.316406 232.53125 -52.578125 C 248.269531 -65.847656 256.140625 -84.046875 256.140625 -107.171875 C 256.140625 -125.554688 248.742188 -141.898438 233.953125 -156.203125 C 219.171875 -170.515625 193.398438 -184.398438 156.640625 -197.859375 C 128.398438 -185.734375 107.929688 -172.320312 95.234375 -157.625 C 82.535156 -142.9375 76.1875 -125.363281 76.1875 -104.90625 Z M 165.453125 -383.203125 C 141.765625 -383.203125 123.191406 -377.515625 109.734375 -366.140625 C 96.273438 -354.773438 89.546875 -339.617188 89.546875 -320.671875 C 89.546875 -303.234375 95.132812 -288.257812 106.3125 -275.75 C 117.5 -263.238281 138.160156 -250.726562 168.296875 -238.21875 C 195.390625 -249.59375 214.578125 -261.816406 225.859375 -274.890625 C 237.140625 -287.972656 242.78125 -303.234375 242.78125 -320.671875 C 242.78125 -339.804688 235.90625 -355.007812 222.15625 -366.28125 C 208.414062 -377.5625 189.515625 -383.203125 165.453125 -383.203125 Z M 165.453125 -383.203125 "/></g></g></g></svg>