<svg xmlns="http://www.w3.org/2000/svg" xmlns:xlink="http://www.w3.org/1999/xlink" width="1000" zoomAndPan="magnify" viewBox="0 0 750 749.999995" height="1000" preserveAspectRatio="xMidYMid meet" version="1.0"><defs><g/><clipPath id="5598830ddc"><path d="M 0 748.097656 L 2.253906 748.097656 L 2.253906 750 L 0 750 Z M 0 748.097656 " clip-rule="nonzero"/></clipPath><clipPath id="983b83b1f3"><path d="M 1.050781 748.125 C 2.023438 750 0.523438 750.375 0.300781 750.074219 C 0.0742188 749.851562 0.300781 748.5 0.601562 748.273438 C 0.898438 748.050781 1.726562 748.273438 1.949219 748.574219 C 2.175781 748.800781 2.324219 749.25 2.175781 749.550781 C 2.023438 750 0.976562 750.601562 0.449219 750.601562 C 0 750.601562 -0.675781 750.226562 -0.824219 749.851562 C -1.050781 749.476562 -0.375 748.125 -0.375 748.125 " clip-rule="nonzero"/></clipPath><clipPath id="fc3df5bee7"><path d="M 0 0.0976562 L 2.253906 0.0976562 L 2.253906 2 L 0 2 Z M 0 0.0976562 " clip-rule="nonzero"/></clipPath><clipPath id="a9297c19df"><path d="M 1.050781 0.125 C 2.023438 2 0.523438 2.375 0.300781 2.074219 C 0.0742188 1.851562 0.300781 0.5 0.601562 0.273438 C 0.898438 0.0507812 1.726562 0.273438 1.949219 0.574219 C 2.175781 0.800781 2.324219 1.25 2.175781 1.550781 C 2.023438 2 0.976562 2.601562 0.449219 2.601562 C 0 2.601562 -0.675781 2.226562 -0.824219 1.851562 C -1.050781 1.476562 -0.375 0.125 -0.375 0.125 " clip-rule="nonzero"/></clipPath><clipPath id="c8ef0f41af"><rect x="0" width="3" y="0" height="2"/></clipPath></defs><g clip-path="url(#5598830ddc)"><g clip-path="url(#983b83b1f3)"><g transform="matrix(1, 0, 0, 1, 0, 748)"><g clip-path="url(#c8ef0f41af)"><g clip-path="url(#fc3df5bee7)"><g clip-path="url(#a9297c19df)"><rect x="-165" width="1080" fill="#000000" height="1079.999992" y="-912.999999" fill-opacity="1"/></g></g></g></g></g></g><g fill="#ffffff" fill-opacity="1"><g transform="translate(208.552728, 601.78387)"><g><path d="M 301.625 -238.21875 C 301.625 -75.613281 238.703125 5.6875 112.859375 5.6875 C 90.867188 5.6875 73.429688 3.789062 60.546875 0 L 60.546875 -40.65625 C 75.710938 -35.726562 92.960938 -33.265625 112.296875 -33.265625 C 157.773438 -33.265625 192.125 -47.332031 215.34375 -75.46875 C 238.5625 -103.613281 251.210938 -146.78125 253.296875 -204.96875 L 249.875 -204.96875 C 239.457031 -189.238281 225.625 -177.25 208.375 -169 C 191.125 -160.757812 171.695312 -156.640625 150.09375 -156.640625 C 113.332031 -156.640625 84.148438 -167.628906 62.546875 -189.609375 C 40.941406 -211.597656 30.140625 -242.300781 30.140625 -281.71875 C 30.140625 -324.925781 42.21875 -359.035156 66.375 -384.046875 C 90.539062 -409.066406 122.332031 -421.578125 161.75 -421.578125 C 189.988281 -421.578125 214.671875 -414.328125 235.796875 -399.828125 C 256.929688 -385.335938 273.1875 -364.207031 284.5625 -336.4375 C 295.9375 -308.675781 301.625 -275.9375 301.625 -238.21875 Z M 161.75 -381.21875 C 134.65625 -381.21875 113.710938 -372.5 98.921875 -355.0625 C 84.140625 -337.625 76.75 -313.363281 76.75 -282.28125 C 76.75 -255 83.570312 -233.539062 97.21875 -217.90625 C 110.863281 -202.269531 131.617188 -194.453125 159.484375 -194.453125 C 176.722656 -194.453125 192.59375 -197.957031 207.09375 -204.96875 C 221.59375 -211.976562 233.007812 -221.546875 241.34375 -233.671875 C 249.6875 -245.804688 253.859375 -258.503906 253.859375 -271.765625 C 253.859375 -291.671875 249.972656 -310.054688 242.203125 -326.921875 C 234.429688 -343.785156 223.582031 -357.050781 209.65625 -366.71875 C 195.726562 -376.382812 179.757812 -381.21875 161.75 -381.21875 Z M 161.75 -381.21875 "/></g></g></g></svg>