<svg xmlns="http://www.w3.org/2000/svg" xmlns:xlink="http://www.w3.org/1999/xlink" width="1000" zoomAndPan="magnify" viewBox="0 0 750 749.999995" height="1000" preserveAspectRatio="xMidYMid meet" version="1.0"><defs><clipPath id="b869ce2b9b"><path d="M 0 748.097656 L 2.253906 748.097656 L 2.253906 750 L 0 750 Z M 0 748.097656 " clip-rule="nonzero"/></clipPath><clipPath id="5c0cde5d61"><path d="M 1.050781 748.125 C 2.023438 750 0.523438 750.375 0.300781 750.074219 C 0.0742188 749.851562 0.300781 748.5 0.601562 748.273438 C 0.898438 748.050781 1.726562 748.273438 1.949219 748.574219 C 2.175781 748.800781 2.324219 749.25 2.175781 749.550781 C 2.023438 750 0.976562 750.601562 0.449219 750.601562 C 0 750.601562 -0.675781 750.226562 -0.824219 749.851562 C -1.050781 749.476562 -0.375 748.125 -0.375 748.125 " clip-rule="nonzero"/></clipPath><clipPath id="08d4e1fd17"><path d="M 0 0.0976562 L 2.253906 0.0976562 L 2.253906 2 L 0 2 Z M 0 0.0976562 " clip-rule="nonzero"/></clipPath><clipPath id="688a80c2c2"><path d="M 1.050781 0.125 C 2.023438 2 0.523438 2.375 0.300781 2.074219 C 0.0742188 1.851562 0.300781 0.5 0.601562 0.273438 C 0.898438 0.0507812 1.726562 0.273438 1.949219 0.574219 C 2.175781 0.800781 2.324219 1.25 2.175781 1.550781 C 2.023438 2 0.976562 2.601562 0.449219 2.601562 C 0 2.601562 -0.675781 2.226562 -0.824219 1.851562 C -1.050781 1.476562 -0.375 0.125 -0.375 0.125 " clip-rule="nonzero"/></clipPath><clipPath id="0954d9e428"><rect x="0" width="3" y="0" height="2"/></clipPath></defs><path fill="#ffffff" d="M 234.25 483.253906 C 232.792969 413.234375 230.539062 324.152344 229.25 257.046875 C 180.371094 255.851562 136.015625 254.613281 106.457031 254.28125 C 88.589844 254.078125 22.863281 257.585938 10.953125 255.496094 C 4.304688 254.328125 -0.00390625 254.53125 6.378906 240.234375 C 6.984375 238.875 7.558594 237.230469 9.257812 237.132812 C 49.117188 234.914062 133.878906 233.773438 228.820312 233.207031 C 228.726562 227.625 228.644531 222.269531 228.570312 217.171875 C 227.324219 129.269531 232.800781 51.265625 243.292969 9.117188 C 245.558594 0.0195312 250.640625 6.609375 252.621094 7.859375 C 272.339844 20.304688 265.601562 29.605469 263.199219 47.023438 C 249.855469 143.753906 257.152344 207.058594 257.035156 233.054688 C 337.632812 232.671875 422.945312 232.65625 492.800781 232.714844 C 494.015625 182.097656 495.308594 135.984375 495.652344 105.519531 C 495.851562 87.589844 492.359375 21.640625 494.441406 9.691406 C 494.746094 7.953125 495.703125 6.167969 496.957031 4.742188 C 497.476562 4.152344 505.929688 3.425781 509.652344 5.097656 C 511.003906 5.707031 512.644531 6.28125 512.738281 7.988281 C 514.984375 48.601562 516.125 135.683594 516.679688 232.734375 C 559.558594 232.78125 594.902344 232.84375 617.175781 232.84375 C 670.308594 232.84375 717.9375 228.933594 741.871094 228.046875 C 743.03125 228 744.199219 227.976562 745.351562 227.96875 C 746.179688 227.964844 746.949219 228.390625 747.386719 229.09375 C 747.820312 229.800781 747.851562 230.683594 747.476562 231.417969 C 746.328125 233.664062 745.054688 235.988281 743.617188 238.246094 C 741.207031 242.039062 738.429688 246.160156 733.519531 246.800781 C 693.277344 252.070312 601.664062 255.898438 516.808594 257.921875 C 517.164062 333.464844 517.199219 413.035156 517.15625 480.167969 C 522.269531 480.097656 527.429688 480.023438 532.636719 479.949219 C 620.238281 478.699219 701.765625 485.769531 744.132812 494.722656 C 749.996094 495.964844 737.101562 511.292969 725.085938 513.125 C 715.257812 514.617188 704.179688 513.953125 699.691406 513.355469 C 691.363281 512.246094 615.636719 511.339844 517.128906 510.53125 C 517.082031 556.535156 517.015625 594.5 517.015625 617.984375 C 517.015625 671.296875 520.914062 715.605469 521.796875 739.617188 C 521.8125 740.011719 521.824219 740.402344 521.835938 740.796875 C 521.871094 742.121094 521.195312 743.367188 520.0625 744.058594 C 519.453125 744.429688 518.765625 744.613281 518.078125 744.601562 C 517.480469 744.59375 516.890625 744.441406 516.351562 744.144531 C 514.78125 743.289062 513.191406 742.371094 511.632812 741.371094 C 507.851562 738.953125 503.742188 736.167969 503.101562 731.238281 C 497.707031 689.761719 493.832031 597.847656 491.863281 510.328125 C 418.484375 509.757812 335.257812 509.230469 258.777344 508.703125 C 259.691406 566.332031 260.945312 614.253906 262.539062 634.152344 C 264.605469 660.066406 257.484375 727.261719 254.769531 736.984375 C 253.824219 740.378906 249.859375 742.214844 245.800781 743.886719 C 244.777344 744.3125 241.738281 746.238281 240.746094 741.183594 C 240.027344 737.546875 239.382812 732.320312 239.039062 728.230469 C 236.40625 696.96875 236.828125 638.921875 235.269531 537.886719 C 235.132812 528.855469 234.957031 519.015625 234.757812 508.535156 C 175.730469 508.121094 121.992188 507.699219 81.679688 507.261719 C 45.597656 506.867188 15.613281 506.03125 11.917969 505.929688 C 6.546875 505.78125 3.21875 504.648438 3.246094 503.105469 C 3.3125 499.53125 15.566406 493.753906 20.449219 492.878906 C 56.214844 486.464844 124.382812 484.566406 234.25 483.253906 Z M 491.265625 480.511719 C 490.761719 451.851562 490.46875 423.679688 490.402344 397.601562 C 490.289062 354.613281 491.140625 305.457031 492.199219 258.457031 C 459.511719 259.101562 427.171875 259.46875 397.546875 259.546875 L 397.542969 259.546875 C 354.121094 259.664062 304.382812 258.78125 256.964844 257.703125 C 256.890625 319.195312 257.371094 406.761719 258.402344 482.980469 C 322.730469 482.289062 399.898438 481.691406 491.265625 480.511719 Z M 491.265625 480.511719 " fill-opacity="1" fill-rule="evenodd"/><g clip-path="url(#b869ce2b9b)"><g clip-path="url(#5c0cde5d61)"><g transform="matrix(1, 0, 0, 1, 0, 748)"><g clip-path="url(#0954d9e428)"><g clip-path="url(#08d4e1fd17)"><g clip-path="url(#688a80c2c2)"><rect x="-165" width="1080" fill="#000000" height="1079.999992" y="-912.999999" fill-opacity="1"/></g></g></g></g></g></g></svg>