<svg xmlns="http://www.w3.org/2000/svg" xmlns:xlink="http://www.w3.org/1999/xlink" width="1000" zoomAndPan="magnify" viewBox="0 0 750 749.999995" height="1000" preserveAspectRatio="xMidYMid meet" version="1.0"><defs><clipPath id="e938ba207c"><path d="M 0 748.097656 L 2.253906 748.097656 L 2.253906 750 L 0 750 Z M 0 748.097656 " clip-rule="nonzero"/></clipPath><clipPath id="bc6d967173"><path d="M 1.050781 748.125 C 2.023438 750 0.523438 750.375 0.300781 750.074219 C 0.0742188 749.851562 0.300781 748.5 0.601562 748.273438 C 0.898438 748.050781 1.726562 748.273438 1.949219 748.574219 C 2.175781 748.800781 2.324219 749.25 2.175781 749.550781 C 2.023438 750 0.976562 750.601562 0.449219 750.601562 C 0 750.601562 -0.675781 750.226562 -0.824219 749.851562 C -1.050781 749.476562 -0.375 748.125 -0.375 748.125 " clip-rule="nonzero"/></clipPath><clipPath id="5a1a7aebd2"><path d="M 0 0.0976562 L 2.253906 0.0976562 L 2.253906 2 L 0 2 Z M 0 0.0976562 " clip-rule="nonzero"/></clipPath><clipPath id="70c92961d2"><path d="M 1.050781 0.125 C 2.023438 2 0.523438 2.375 0.300781 2.074219 C 0.0742188 1.851562 0.300781 0.5 0.601562 0.273438 C 0.898438 0.0507812 1.726562 0.273438 1.949219 0.574219 C 2.175781 0.800781 2.324219 1.25 2.175781 1.550781 C 2.023438 2 0.976562 2.601562 0.449219 2.601562 C 0 2.601562 -0.675781 2.226562 -0.824219 1.851562 C -1.050781 1.476562 -0.375 0.125 -0.375 0.125 " clip-rule="nonzero"/></clipPath><clipPath id="e51ba292c9"><rect x="0" width="3" y="0" height="2"/></clipPath><clipPath id="d0e45946e0"><path d="M 30.734375 46.226562 L 719.234375 46.226562 L 719.234375 703.976562 L 30.734375 703.976562 Z M 30.734375 46.226562 " clip-rule="nonzero"/></clipPath></defs><g clip-path="url(#e938ba207c)"><g clip-path="url(#bc6d967173)"><g transform="matrix(1, 0, 0, 1, 0, 748)"><g clip-path="url(#e51ba292c9)"><g clip-path="url(#5a1a7aebd2)"><g clip-path="url(#70c92961d2)"><rect x="-165" width="1080" fill="#000000" height="1079.999992" y="-912.999999" fill-opacity="1"/></g></g></g></g></g></g><g clip-path="url(#d0e45946e0)"><path fill="#ffffff" d="M 423.929688 80.527344 C 568.046875 76.570312 693.09375 175.914062 707.097656 321.941406 C 720.792969 202.519531 640.164062 99.234375 526.042969 69.945312 C 386.371094 35.082031 206 75.960938 116.71875 194.289062 C 199.773438 119.726562 313.074219 81.523438 423.929688 80.527344 Z M 371.9375 622.96875 C 512.214844 603.078125 656.371094 511.476562 697.976562 370.695312 C 700.347656 319.371094 689.289062 266.613281 664.410156 221.707031 C 596.132812 94.429688 439.695312 71.207031 310.902344 105.773438 C 214.152344 131.550781 91.359375 191.710938 66.628906 296.996094 C 38.316406 391.054688 69.066406 498.800781 151.285156 555.378906 C 169.441406 569.515625 187.621094 583.609375 206.082031 597.34375 C 257.363281 621.914062 315.765625 629.761719 371.9375 622.96875 Z M 363.722656 692.617188 C 525.398438 695.753906 665.257812 573.191406 692.945312 415.640625 C 618.195312 571.035156 408.429688 673.382812 241.144531 622.585938 C 245.207031 625.402344 249.285156 628.203125 253.382812 630.980469 C 259.144531 634.910156 252.949219 643.957031 247.179688 639.886719 C 224.046875 624.339844 202.53125 606.71875 177.449219 594.363281 C 112.269531 555.664062 61.53125 490.972656 45.394531 416.347656 C 63.917969 574.238281 206.214844 694.398438 363.949219 692.621094 C 363.949219 692.621094 363.722656 692.617188 363.722656 692.617188 Z M 357.992188 703.371094 C 161.453125 701.828125 10.816406 527.703125 32.875 333.308594 C 38.777344 279.027344 49.929688 221.707031 82.777344 176.839844 C 86.714844 171.113281 95.824219 177.296875 91.683594 183.039062 C 82.832031 194.035156 76.234375 206.621094 70.714844 219.558594 C 58.761719 248.105469 51.34375 278.390625 46.605469 308.917969 C 53.542969 278.515625 70.382812 252.246094 84.414062 224.863281 C 113.265625 170.613281 159.664062 126.769531 213.945312 98.394531 C 342.570312 34.210938 517.5625 18.40625 634.742188 114.105469 C 709.976562 174.921875 735.875 280.949219 708.792969 372.191406 C 703.140625 553.546875 541.179688 712.054688 357.992188 703.371094 Z M 357.992188 703.371094 " fill-opacity="1" fill-rule="nonzero"/></g></svg>