<svg xmlns="http://www.w3.org/2000/svg" xmlns:xlink="http://www.w3.org/1999/xlink" width="1000" zoomAndPan="magnify" viewBox="0 0 750 749.999995" height="1000" preserveAspectRatio="xMidYMid meet" version="1.0"><defs><clipPath id="e1ae3b0b59"><path d="M 0 748.097656 L 2.253906 748.097656 L 2.253906 750 L 0 750 Z M 0 748.097656 " clip-rule="nonzero"/></clipPath><clipPath id="7c525c45cb"><path d="M 1.050781 748.125 C 2.023438 750 0.523438 750.375 0.300781 750.074219 C 0.0742188 749.851562 0.300781 748.5 0.601562 748.273438 C 0.898438 748.050781 1.726562 748.273438 1.949219 748.574219 C 2.175781 748.800781 2.324219 749.25 2.175781 749.550781 C 2.023438 750 0.976562 750.601562 0.449219 750.601562 C 0 750.601562 -0.675781 750.226562 -0.824219 749.851562 C -1.050781 749.476562 -0.375 748.125 -0.375 748.125 " clip-rule="nonzero"/></clipPath><clipPath id="925affccd2"><path d="M 0 0.0976562 L 2.253906 0.0976562 L 2.253906 2 L 0 2 Z M 0 0.0976562 " clip-rule="nonzero"/></clipPath><clipPath id="5ba71c832d"><path d="M 1.050781 0.125 C 2.023438 2 0.523438 2.375 0.300781 2.074219 C 0.0742188 1.851562 0.300781 0.5 0.601562 0.273438 C 0.898438 0.0507812 1.726562 0.273438 1.949219 0.574219 C 2.175781 0.800781 2.324219 1.25 2.175781 1.550781 C 2.023438 2 0.976562 2.601562 0.449219 2.601562 C 0 2.601562 -0.675781 2.226562 -0.824219 1.851562 C -1.050781 1.476562 -0.375 0.125 -0.375 0.125 " clip-rule="nonzero"/></clipPath><clipPath id="04c3fd9717"><rect x="0" width="3" y="0" height="2"/></clipPath><clipPath id="1825a52eae"><path d="M 9.257812 69 L 730 69 L 730 689 L 9.257812 689 Z M 9.257812 69 " clip-rule="nonzero"/></clipPath></defs><g clip-path="url(#e1ae3b0b59)"><g clip-path="url(#7c525c45cb)"><g transform="matrix(1, 0, 0, 1, 0, 748)"><g clip-path="url(#04c3fd9717)"><g clip-path="url(#925affccd2)"><g clip-path="url(#5ba71c832d)"><rect x="-165" width="1080" fill="#000000" height="1079.999992" y="-912.999999" fill-opacity="1"/></g></g></g></g></g></g><g clip-path="url(#1825a52eae)"><path fill="#ffffff" d="M 9.183594 688.808594 C 29.695312 675.519531 72.964844 643.0625 122.71875 605.421875 C 172.472656 567.78125 229.210938 525.523438 291.945312 477.535156 C 354.679688 429.546875 420.304688 372.359375 466.671875 330.996094 C 513.042969 289.636719 538.261719 268 564.402344 245.789062 C 590.546875 223.578125 617.566406 200.730469 645.296875 177.015625 C 673.027344 153.304688 700.988281 128.085938 720.757812 106.570312 C 740.523438 85.054688 722.191406 61.050781 706.929688 72.703125 C 706.929688 72.703125 670.160156 87.949219 639.113281 109.121094 C 608.066406 130.292969 578.753906 152.027344 550.699219 173.6875 C 522.644531 195.347656 495.707031 216.75 469.722656 238.113281 C 443.738281 259.472656 374.527344 321.152344 313.492188 379.183594 C 252.453125 437.21875 200.367188 492.90625 153.085938 541.597656 C 105.808594 590.292969 63.714844 632.421875 45.636719 652.730469 C 9.183594 688.808594 27.5625 673.042969 9.183594 688.808594 Z M 9.183594 688.808594 " fill-opacity="1" fill-rule="nonzero"/></g><path fill="#ffffff" d="M 660.457031 604.332031 C 633.925781 583.019531 579.496094 546.125 527.832031 509.257812 C 476.167969 472.386719 427.183594 435.746094 378.121094 403.910156 C 329.0625 372.070312 281.300781 342.589844 244.460938 319.847656 C 207.617188 297.105469 182.160156 280.679688 159.34375 265.339844 C 136.527344 250 116.289062 235.832031 98.402344 223.054688 C 80.519531 210.273438 64.382812 199.410156 52.070312 192.40625 C 39.757812 185.40625 18.132812 206.492188 24.589844 213.117188 C 24.589844 213.117188 32.25 232.21875 46.867188 248.859375 C 61.480469 265.496094 79.511719 282.183594 100.515625 299.289062 C 121.523438 316.398438 145.332031 334.113281 171.976562 352.5 C 198.617188 370.882812 244.992188 400.894531 294.175781 430.523438 C 343.359375 460.148438 396.214844 488.023438 453.019531 513.492188 C 509.820312 538.960938 568.460938 565.589844 599.792969 576.8125 C 660.457031 604.332031 631.121094 588.035156 660.457031 604.332031 Z M 660.457031 604.332031 " fill-opacity="1" fill-rule="nonzero"/></svg>